<?xml version="1.0" encoding="UTF-8" standalone="no"?>
<!DOCTYPE svg PUBLIC "-//W3C//DTD SVG 1.1//EN"
 "http://www.w3.org/Graphics/SVG/1.1/DTD/svg11.dtd">
<!-- Generated by graphviz version 2.43.0 (0)
 -->
<!-- Title: G Pages: 1 -->
<svg width="952pt" height="720pt"
 viewBox="0.00 0.00 952.26 720.00" xmlns="http://www.w3.org/2000/svg" xmlns:xlink="http://www.w3.org/1999/xlink">
<g id="graph0" class="graph" transform="scale(0.83 0.83) rotate(0) translate(4 864)">
<title>G</title>
<polygon fill="#f5f5f5" stroke="transparent" points="-4,4 -4,-864 1144,-864 1144,4 -4,4"/>
<g id="clust3" class="cluster">
<title>cluster_online_connectivity</title>
<polygon fill="#f5f5f5" stroke="#f4c2c2" stroke-dasharray="5,2" points="8,-8 8,-194 326,-194 326,-8 8,-8"/>
<text text-anchor="middle" x="167" y="-177.2" font-family="Times,serif" font-size="16.00" fill="#343541">Online Connectivity</text>
</g>
<g id="clust1" class="cluster">
<title>cluster_left_sources</title>
<polygon fill="#f5f5f5" stroke="#aec6cf" stroke-dasharray="5,2" points="26,-450 26,-852 308,-852 308,-450 26,-450"/>
<text text-anchor="middle" x="167" y="-835.2" font-family="Times,serif" font-size="16.00" fill="#343541">Internal Data Sources</text>
</g>
<g id="clust2" class="cluster">
<title>cluster_external_sources</title>
<polygon fill="#f5f5f5" stroke="#b4d7a8" stroke-dasharray="5,2" points="22,-202 22,-442 312,-442 312,-202 22,-202"/>
<text text-anchor="middle" x="167" y="-425.2" font-family="Times,serif" font-size="16.00" fill="#343541">External Data Sources</text>
</g>
<g id="clust4" class="cluster">
<title>cluster_processing</title>
<polygon fill="#f5f5f5" stroke="#aaaaaa" points="346,-407 346,-487 823,-487 823,-407 346,-407"/>
<text text-anchor="middle" x="584.5" y="-468.6" font-family="Times,serif" font-size="18.00" fill="#343541">Processing Layer</text>
</g>
<g id="clust5" class="cluster">
<title>cluster_outputs</title>
<polygon fill="#f5f5f5" stroke="#fed8b1" points="843,-245 843,-647 1132,-647 1132,-245 843,-245"/>
<text text-anchor="middle" x="987.5" y="-630.2" font-family="Times,serif" font-size="16.00" fill="#343541">Outputs</text>
</g>
<!-- finance -->
<g id="node1" class="node">
<title>finance</title>
<path fill="#aec6cf" stroke="black" d="M212,-818C212,-818 122,-818 122,-818 116,-818 110,-812 110,-806 110,-806 110,-794 110,-794 110,-788 116,-782 122,-782 122,-782 212,-782 212,-782 218,-782 224,-788 224,-794 224,-794 224,-806 224,-806 224,-812 218,-818 212,-818"/>
<text text-anchor="middle" x="167" y="-796.3" font-family="Arial" font-size="14.00" fill="#343541">Finance System</text>
</g>
<!-- integration -->
<g id="node15" class="node">
<title>integration</title>
<polygon fill="white" stroke="black" stroke-width="2" points="485,-451 354,-451 354,-415 485,-415 485,-451"/>
<text text-anchor="middle" x="419.5" y="-429.2" font-family="Arial" font-size="16.00" fill="#343541">Data Integration</text>
</g>
<!-- finance&#45;&gt;integration -->
<g id="edge1" class="edge">
<title>finance&#45;&gt;integration</title>
<path fill="none" stroke="#aaaaaa" d="M224.16,-804.51C257.65,-804.1 298.8,-797.69 326,-773 372.36,-730.91 403.72,-538.73 414.43,-463.41"/>
<polygon fill="#aaaaaa" stroke="#aaaaaa" points="418.64,-463.63 416.14,-451.16 410.32,-462.47 418.64,-463.63"/>
</g>
<!-- invoice -->
<g id="node2" class="node">
<title>invoice</title>
<path fill="#aec6cf" stroke="black" d="M251.5,-764C251.5,-764 82.5,-764 82.5,-764 76.5,-764 70.5,-758 70.5,-752 70.5,-752 70.5,-740 70.5,-740 70.5,-734 76.5,-728 82.5,-728 82.5,-728 251.5,-728 251.5,-728 257.5,-728 263.5,-734 263.5,-740 263.5,-740 263.5,-752 263.5,-752 263.5,-758 257.5,-764 251.5,-764"/>
<text text-anchor="middle" x="167" y="-742.3" font-family="Arial" font-size="14.00" fill="#343541">Invoice Management System</text>
</g>
<!-- invoice&#45;&gt;integration -->
<g id="edge2" class="edge">
<title>invoice&#45;&gt;integration</title>
<path fill="none" stroke="#aaaaaa" d="M263.84,-746.24C286.34,-742.07 308.75,-733.94 326,-719 402.66,-652.63 416.24,-522.25 418.33,-463.26"/>
<polygon fill="#aaaaaa" stroke="#aaaaaa" points="422.53,-463.26 418.63,-451.16 414.13,-463.05 422.53,-463.26"/>
</g>
<!-- energy -->
<g id="node3" class="node">
<title>energy</title>
<path fill="#aec6cf" stroke="black" d="M243,-710C243,-710 91,-710 91,-710 85,-710 79,-704 79,-698 79,-698 79,-686 79,-686 79,-680 85,-674 91,-674 91,-674 243,-674 243,-674 249,-674 255,-680 255,-686 255,-686 255,-698 255,-698 255,-704 249,-710 243,-710"/>
<text text-anchor="middle" x="167" y="-688.3" font-family="Arial" font-size="14.00" fill="#343541">Energy Consumption Logs</text>
</g>
<!-- energy&#45;&gt;integration -->
<g id="edge3" class="edge">
<title>energy&#45;&gt;integration</title>
<path fill="none" stroke="#aaaaaa" d="M255.36,-692.72C280.38,-689.03 306.21,-681.02 326,-665 389.1,-613.94 409.38,-513.49 415.72,-463.2"/>
<polygon fill="#aaaaaa" stroke="#aaaaaa" points="419.89,-463.66 417.08,-451.27 411.55,-462.71 419.89,-463.66"/>
</g>
<!-- transport -->
<g id="node4" class="node">
<title>transport</title>
<path fill="#aec6cf" stroke="black" d="M223,-656C223,-656 111,-656 111,-656 105,-656 99,-650 99,-644 99,-644 99,-632 99,-632 99,-626 105,-620 111,-620 111,-620 223,-620 223,-620 229,-620 235,-626 235,-632 235,-632 235,-644 235,-644 235,-650 229,-656 223,-656"/>
<text text-anchor="middle" x="167" y="-634.3" font-family="Arial" font-size="14.00" fill="#343541">Transportation Data</text>
</g>
<!-- transport&#45;&gt;integration -->
<g id="edge4" class="edge">
<title>transport&#45;&gt;integration</title>
<path fill="none" stroke="#aaaaaa" d="M235.07,-639.65C265.34,-637.29 300.04,-629.95 326,-611 375.86,-574.61 401.02,-503.29 411.78,-462.84"/>
<polygon fill="#aaaaaa" stroke="#aaaaaa" points="415.88,-463.78 414.73,-451.12 407.73,-461.73 415.88,-463.78"/>
</g>
<!-- waste -->
<g id="node5" class="node">
<title>waste</title>
<path fill="#aec6cf" stroke="black" d="M250,-602C250,-602 84,-602 84,-602 78,-602 72,-596 72,-590 72,-590 72,-578 72,-578 72,-572 78,-566 84,-566 84,-566 250,-566 250,-566 256,-566 262,-572 262,-578 262,-578 262,-590 262,-590 262,-596 256,-602 250,-602"/>
<text text-anchor="middle" x="167" y="-580.3" font-family="Arial" font-size="14.00" fill="#343541">Waste Management Reports</text>
</g>
<!-- waste&#45;&gt;integration -->
<g id="edge5" class="edge">
<title>waste&#45;&gt;integration</title>
<path fill="none" stroke="#aaaaaa" d="M262.02,-579.83C284.18,-575.71 306.9,-568.7 326,-557 362.84,-534.44 389.9,-491.28 404.93,-462.31"/>
<polygon fill="#aaaaaa" stroke="#aaaaaa" points="408.85,-463.85 410.45,-451.24 401.34,-460.1 408.85,-463.85"/>
</g>
<!-- procurement -->
<g id="node6" class="node">
<title>procurement</title>
<path fill="#aec6cf" stroke="black" d="M227,-548C227,-548 107,-548 107,-548 101,-548 95,-542 95,-536 95,-536 95,-524 95,-524 95,-518 101,-512 107,-512 107,-512 227,-512 227,-512 233,-512 239,-518 239,-524 239,-524 239,-536 239,-536 239,-542 233,-548 227,-548"/>
<text text-anchor="middle" x="167" y="-526.3" font-family="Arial" font-size="14.00" fill="#343541">Procurement System</text>
</g>
<!-- procurement&#45;&gt;integration -->
<g id="edge6" class="edge">
<title>procurement&#45;&gt;integration</title>
<path fill="none" stroke="#aaaaaa" d="M239.29,-525.12C267.19,-521.36 298.93,-514.72 326,-503 350.17,-492.54 373.79,-474.5 391.11,-459.35"/>
<polygon fill="#aaaaaa" stroke="#aaaaaa" points="393.94,-462.45 400.04,-451.3 388.32,-456.21 393.94,-462.45"/>
</g>
<!-- hr -->
<g id="node7" class="node">
<title>hr</title>
<path fill="#aec6cf" stroke="black" d="M288,-494C288,-494 46,-494 46,-494 40,-494 34,-488 34,-482 34,-482 34,-470 34,-470 34,-464 40,-458 46,-458 46,-458 288,-458 288,-458 294,-458 300,-464 300,-470 300,-470 300,-482 300,-482 300,-488 294,-494 288,-494"/>
<text text-anchor="middle" x="167" y="-472.3" font-family="Arial" font-size="14.00" fill="#343541">HR Systems (employee commuting data)</text>
</g>
<!-- hr&#45;&gt;integration -->
<g id="edge7" class="edge">
<title>hr&#45;&gt;integration</title>
<path fill="none" stroke="#aaaaaa" d="M273.15,-457.95C296.3,-453.98 320.41,-449.84 342.17,-446.1"/>
<polygon fill="#aaaaaa" stroke="#aaaaaa" points="342.88,-450.24 354,-444.07 341.46,-441.96 342.88,-450.24"/>
</g>
<!-- un_databases -->
<g id="node8" class="node">
<title>un_databases</title>
<path fill="#b4d7a8" stroke="black" d="M289.5,-408C289.5,-408 44.5,-408 44.5,-408 38.5,-408 32.5,-402 32.5,-396 32.5,-396 32.5,-384 32.5,-384 32.5,-378 38.5,-372 44.5,-372 44.5,-372 289.5,-372 289.5,-372 295.5,-372 301.5,-378 301.5,-384 301.5,-384 301.5,-396 301.5,-396 301.5,-402 295.5,-408 289.5,-408"/>
<text text-anchor="middle" x="167" y="-386.3" font-family="Arial" font-size="14.00" fill="#343541">International Databases (UNFCCC, IPCC)</text>
</g>
<!-- un_databases&#45;&gt;integration -->
<g id="edge8" class="edge">
<title>un_databases&#45;&gt;integration</title>
<path fill="none" stroke="#aaaaaa" d="M273.15,-408.05C296.3,-412.02 320.41,-416.16 342.17,-419.9"/>
<polygon fill="#aaaaaa" stroke="#aaaaaa" points="341.46,-424.04 354,-421.93 342.88,-415.76 341.46,-424.04"/>
</g>
<!-- openlca -->
<g id="node9" class="node">
<title>openlca</title>
<path fill="#b4d7a8" stroke="black" d="M220.5,-354C220.5,-354 113.5,-354 113.5,-354 107.5,-354 101.5,-348 101.5,-342 101.5,-342 101.5,-330 101.5,-330 101.5,-324 107.5,-318 113.5,-318 113.5,-318 220.5,-318 220.5,-318 226.5,-318 232.5,-324 232.5,-330 232.5,-330 232.5,-342 232.5,-342 232.5,-348 226.5,-354 220.5,-354"/>
<text text-anchor="middle" x="167" y="-332.3" font-family="Arial" font-size="14.00" fill="#343541">OpenLCA Libraries</text>
</g>
<!-- openlca&#45;&gt;integration -->
<g id="edge9" class="edge">
<title>openlca&#45;&gt;integration</title>
<path fill="none" stroke="#aaaaaa" d="M232.65,-340.03C262.07,-343.61 296.76,-350.34 326,-363 350.17,-373.46 373.79,-391.5 391.11,-406.65"/>
<polygon fill="#aaaaaa" stroke="#aaaaaa" points="388.32,-409.79 400.04,-414.7 393.94,-403.55 388.32,-409.79"/>
</g>
<!-- industry -->
<g id="node10" class="node">
<title>industry</title>
<path fill="#b4d7a8" stroke="black" d="M227,-300C227,-300 107,-300 107,-300 101,-300 95,-294 95,-288 95,-288 95,-276 95,-276 95,-270 101,-264 107,-264 107,-264 227,-264 227,-264 233,-264 239,-270 239,-276 239,-276 239,-288 239,-288 239,-294 233,-300 227,-300"/>
<text text-anchor="middle" x="167" y="-278.3" font-family="Arial" font-size="14.00" fill="#343541">Industry Benchmarks</text>
</g>
<!-- industry&#45;&gt;integration -->
<g id="edge10" class="edge">
<title>industry&#45;&gt;integration</title>
<path fill="none" stroke="#aaaaaa" d="M239.27,-282.85C267.95,-285.98 300.25,-293.23 326,-309 362.84,-331.56 389.9,-374.72 404.93,-403.69"/>
<polygon fill="#aaaaaa" stroke="#aaaaaa" points="401.34,-405.9 410.45,-414.76 408.85,-402.15 401.34,-405.9"/>
</g>
<!-- regulatory -->
<g id="node11" class="node">
<title>regulatory</title>
<path fill="#b4d7a8" stroke="black" d="M292,-246C292,-246 42,-246 42,-246 36,-246 30,-240 30,-234 30,-234 30,-222 30,-222 30,-216 36,-210 42,-210 42,-210 292,-210 292,-210 298,-210 304,-216 304,-222 304,-222 304,-234 304,-234 304,-240 298,-246 292,-246"/>
<text text-anchor="middle" x="167" y="-224.3" font-family="Arial" font-size="14.00" fill="#343541">Regulatory Bodies (EU, National Agencies)</text>
</g>
<!-- regulatory&#45;&gt;integration -->
<g id="edge11" class="edge">
<title>regulatory&#45;&gt;integration</title>
<path fill="none" stroke="#aaaaaa" d="M304.23,-242.47C311.92,-245.94 319.26,-250.08 326,-255 375.86,-291.39 401.02,-362.71 411.78,-403.16"/>
<polygon fill="#aaaaaa" stroke="#aaaaaa" points="407.73,-404.27 414.73,-414.88 415.88,-402.22 407.73,-404.27"/>
</g>
<!-- compliance -->
<g id="node12" class="node">
<title>compliance</title>
<path fill="#f4c2c2" stroke="black" d="M258,-160C258,-160 76,-160 76,-160 70,-160 64,-154 64,-148 64,-148 64,-136 64,-136 64,-130 70,-124 76,-124 76,-124 258,-124 258,-124 264,-124 270,-130 270,-136 270,-136 270,-148 270,-148 270,-154 264,-160 258,-160"/>
<text text-anchor="middle" x="167" y="-138.3" font-family="Arial" font-size="14.00" fill="#343541">Real&#45;time Compliance Services</text>
</g>
<!-- compliance&#45;&gt;integration -->
<g id="edge12" class="edge">
<title>compliance&#45;&gt;integration</title>
<path fill="none" stroke="#aaaaaa" d="M260.26,-160.14C283.99,-168.44 307.9,-180.51 326,-198 384.76,-254.77 406.99,-353.41 414.73,-402.89"/>
<polygon fill="#aaaaaa" stroke="#aaaaaa" points="410.6,-403.63 416.48,-414.91 418.91,-402.43 410.6,-403.63"/>
</g>
<!-- external_apis -->
<g id="node13" class="node">
<title>external_apis</title>
<path fill="#f4c2c2" stroke="black" d="M306,-106C306,-106 28,-106 28,-106 22,-106 16,-100 16,-94 16,-94 16,-82 16,-82 16,-76 22,-70 28,-70 28,-70 306,-70 306,-70 312,-70 318,-76 318,-82 318,-82 318,-94 318,-94 318,-100 312,-106 306,-106"/>
<text text-anchor="middle" x="167" y="-84.3" font-family="Arial" font-size="14.00" fill="#343541">External APIs for Carbon Pricing &amp; Benchmarks</text>
</g>
<!-- external_apis&#45;&gt;integration -->
<g id="edge13" class="edge">
<title>external_apis&#45;&gt;integration</title>
<path fill="none" stroke="#aaaaaa" d="M314.42,-106.2C318.49,-108.83 322.37,-111.76 326,-115 410.71,-190.58 419.78,-338.75 419.49,-402.57"/>
<polygon fill="#aaaaaa" stroke="#aaaaaa" points="415.29,-402.79 419.31,-414.85 423.69,-402.92 415.29,-402.79"/>
</g>
<!-- live_updates -->
<g id="node14" class="node">
<title>live_updates</title>
<path fill="#f4c2c2" stroke="black" d="M286,-52C286,-52 48,-52 48,-52 42,-52 36,-46 36,-40 36,-40 36,-28 36,-28 36,-22 42,-16 48,-16 48,-16 286,-16 286,-16 292,-16 298,-22 298,-28 298,-28 298,-40 298,-40 298,-46 292,-52 286,-52"/>
<text text-anchor="middle" x="167" y="-30.3" font-family="Arial" font-size="14.00" fill="#343541">Live Updates on Regulatory Frameworks</text>
</g>
<!-- live_updates&#45;&gt;integration -->
<g id="edge14" class="edge">
<title>live_updates&#45;&gt;integration</title>
<path fill="none" stroke="#aaaaaa" d="M298.21,-43.06C308.38,-47.56 317.84,-53.43 326,-61 376.48,-107.85 405.8,-322.11 415.18,-402.46"/>
<polygon fill="#aaaaaa" stroke="#aaaaaa" points="411.03,-403.13 416.56,-414.58 419.37,-402.18 411.03,-403.13"/>
</g>
<!-- model_core -->
<g id="node16" class="node">
<title>model_core</title>
<polygon fill="white" stroke="black" stroke-width="2" points="621,-451 521,-451 521,-415 621,-415 621,-451"/>
<text text-anchor="middle" x="571" y="-429.2" font-family="Arial" font-size="16.00" fill="#343541">Model Core</text>
</g>
<!-- integration&#45;&gt;model_core -->
<g id="edge15" class="edge">
<title>integration&#45;&gt;model_core</title>
<path fill="none" stroke="#aaaaaa" d="M485.2,-433C493.08,-433 501.1,-433 508.91,-433"/>
<polygon fill="#aaaaaa" stroke="#aaaaaa" points="508.98,-437.2 520.98,-433 508.98,-428.8 508.98,-437.2"/>
</g>
<!-- analytics -->
<g id="node17" class="node">
<title>analytics</title>
<polygon fill="white" stroke="black" stroke-width="2" points="815,-451 657,-451 657,-415 815,-415 815,-451"/>
<text text-anchor="middle" x="736" y="-429.2" font-family="Arial" font-size="16.00" fill="#343541">Advanced Analytics</text>
</g>
<!-- model_core&#45;&gt;analytics -->
<g id="edge16" class="edge">
<title>model_core&#45;&gt;analytics</title>
<path fill="none" stroke="#aaaaaa" d="M621.35,-433C628.81,-433 636.71,-433 644.72,-433"/>
<polygon fill="#aaaaaa" stroke="#aaaaaa" points="644.92,-437.2 656.92,-433 644.92,-428.8 644.92,-437.2"/>
</g>
<!-- ghg_reports -->
<g id="node18" class="node">
<title>ghg_reports</title>
<path fill="#fed8b1" stroke="black" d="M1063,-613C1063,-613 912,-613 912,-613 906,-613 900,-607 900,-601 900,-601 900,-589 900,-589 900,-583 906,-577 912,-577 912,-577 1063,-577 1063,-577 1069,-577 1075,-583 1075,-589 1075,-589 1075,-601 1075,-601 1075,-607 1069,-613 1063,-613"/>
<text text-anchor="middle" x="987.5" y="-591.3" font-family="Arial" font-size="14.00" fill="#343541">GHG Emissions by Scope</text>
</g>
<!-- analytics&#45;&gt;ghg_reports -->
<g id="edge17" class="edge">
<title>analytics&#45;&gt;ghg_reports</title>
<path fill="none" stroke="#aaaaaa" d="M745.81,-451.31C761.13,-481.01 795.62,-539.24 843,-568 856.56,-576.23 872.06,-582.05 887.74,-586.14"/>
<polygon fill="#aaaaaa" stroke="#aaaaaa" points="887.1,-590.31 899.74,-588.95 889.01,-582.13 887.1,-590.31"/>
</g>
<!-- compliance_status -->
<g id="node19" class="node">
<title>compliance_status</title>
<path fill="#fed8b1" stroke="black" d="M1075,-559C1075,-559 900,-559 900,-559 894,-559 888,-553 888,-547 888,-547 888,-535 888,-535 888,-529 894,-523 900,-523 900,-523 1075,-523 1075,-523 1081,-523 1087,-529 1087,-535 1087,-535 1087,-547 1087,-547 1087,-553 1081,-559 1075,-559"/>
<text text-anchor="middle" x="987.5" y="-537.3" font-family="Arial" font-size="14.00" fill="#343541">Regulation Compliance Status</text>
</g>
<!-- analytics&#45;&gt;compliance_status -->
<g id="edge18" class="edge">
<title>analytics&#45;&gt;compliance_status</title>
<path fill="none" stroke="#aaaaaa" d="M755.15,-451.22C774.97,-470 808.52,-498.63 843,-514 853.4,-518.63 864.56,-522.47 875.9,-525.65"/>
<polygon fill="#aaaaaa" stroke="#aaaaaa" points="875.09,-529.78 887.77,-528.73 877.21,-521.65 875.09,-529.78"/>
</g>
<!-- roi_analysis -->
<g id="node20" class="node">
<title>roi_analysis</title>
<path fill="#fed8b1" stroke="black" d="M1052,-505C1052,-505 923,-505 923,-505 917,-505 911,-499 911,-493 911,-493 911,-481 911,-481 911,-475 917,-469 923,-469 923,-469 1052,-469 1052,-469 1058,-469 1064,-475 1064,-481 1064,-481 1064,-493 1064,-493 1064,-499 1058,-505 1052,-505"/>
<text text-anchor="middle" x="987.5" y="-483.3" font-family="Arial" font-size="14.00" fill="#343541">ROI Analysis &amp; Trends</text>
</g>
<!-- analytics&#45;&gt;roi_analysis -->
<g id="edge19" class="edge">
<title>analytics&#45;&gt;roi_analysis</title>
<path fill="none" stroke="#aaaaaa" d="M805.27,-451.07C817.79,-454.19 830.76,-457.29 843,-460 860.97,-463.97 880.29,-467.87 898.74,-471.4"/>
<polygon fill="#aaaaaa" stroke="#aaaaaa" points="898.15,-475.57 910.73,-473.67 899.72,-467.31 898.15,-475.57"/>
</g>
<!-- recommendations -->
<g id="node21" class="node">
<title>recommendations</title>
<path fill="#fed8b1" stroke="black" d="M1112,-451C1112,-451 863,-451 863,-451 857,-451 851,-445 851,-439 851,-439 851,-427 851,-427 851,-421 857,-415 863,-415 863,-415 1112,-415 1112,-415 1118,-415 1124,-421 1124,-427 1124,-427 1124,-439 1124,-439 1124,-445 1118,-451 1112,-451"/>
<text text-anchor="middle" x="987.5" y="-429.3" font-family="Arial" font-size="14.00" fill="#343541">Recommendations for Sustainability Goals</text>
</g>
<!-- analytics&#45;&gt;recommendations -->
<g id="edge20" class="edge">
<title>analytics&#45;&gt;recommendations</title>
<path fill="none" stroke="#aaaaaa" d="M815.26,-433C822.85,-433 830.71,-433 838.7,-433"/>
<polygon fill="#aaaaaa" stroke="#aaaaaa" points="838.91,-437.2 850.91,-433 838.91,-428.8 838.91,-437.2"/>
</g>
<!-- forecasting -->
<g id="node22" class="node">
<title>forecasting</title>
<path fill="#fed8b1" stroke="black" d="M1071.5,-397C1071.5,-397 903.5,-397 903.5,-397 897.5,-397 891.5,-391 891.5,-385 891.5,-385 891.5,-373 891.5,-373 891.5,-367 897.5,-361 903.5,-361 903.5,-361 1071.5,-361 1071.5,-361 1077.5,-361 1083.5,-367 1083.5,-373 1083.5,-373 1083.5,-385 1083.5,-385 1083.5,-391 1077.5,-397 1071.5,-397"/>
<text text-anchor="middle" x="987.5" y="-375.3" font-family="Arial" font-size="14.00" fill="#343541">Future Emissions Projections</text>
</g>
<!-- analytics&#45;&gt;forecasting -->
<g id="edge21" class="edge">
<title>analytics&#45;&gt;forecasting</title>
<path fill="none" stroke="#aaaaaa" d="M805.27,-414.93C817.79,-411.81 830.76,-408.71 843,-406 854.82,-403.39 867.22,-400.81 879.57,-398.34"/>
<polygon fill="#aaaaaa" stroke="#aaaaaa" points="880.42,-402.46 891.38,-396.02 878.8,-394.22 880.42,-402.46"/>
</g>
<!-- benchmarking -->
<g id="node23" class="node">
<title>benchmarking</title>
<path fill="#fed8b1" stroke="black" d="M1052.5,-343C1052.5,-343 922.5,-343 922.5,-343 916.5,-343 910.5,-337 910.5,-331 910.5,-331 910.5,-319 910.5,-319 910.5,-313 916.5,-307 922.5,-307 922.5,-307 1052.5,-307 1052.5,-307 1058.5,-307 1064.5,-313 1064.5,-319 1064.5,-319 1064.5,-331 1064.5,-331 1064.5,-337 1058.5,-343 1052.5,-343"/>
<text text-anchor="middle" x="987.5" y="-321.3" font-family="Arial" font-size="14.00" fill="#343541">Benchmarking Insights</text>
</g>
<!-- analytics&#45;&gt;benchmarking -->
<g id="edge22" class="edge">
<title>analytics&#45;&gt;benchmarking</title>
<path fill="none" stroke="#aaaaaa" d="M755.15,-414.78C774.97,-396 808.52,-367.37 843,-352 860.27,-344.3 879.66,-338.8 898.47,-334.86"/>
<polygon fill="#aaaaaa" stroke="#aaaaaa" points="899.41,-338.96 910.4,-332.55 897.82,-330.71 899.41,-338.96"/>
</g>
<!-- audit -->
<g id="node24" class="node">
<title>audit</title>
<path fill="#fed8b1" stroke="black" d="M1073.5,-289C1073.5,-289 901.5,-289 901.5,-289 895.5,-289 889.5,-283 889.5,-277 889.5,-277 889.5,-265 889.5,-265 889.5,-259 895.5,-253 901.5,-253 901.5,-253 1073.5,-253 1073.5,-253 1079.5,-253 1085.5,-259 1085.5,-265 1085.5,-265 1085.5,-277 1085.5,-277 1085.5,-283 1079.5,-289 1073.5,-289"/>
<text text-anchor="middle" x="987.5" y="-267.3" font-family="Arial" font-size="14.00" fill="#343541">Audit and Assurance Services</text>
</g>
<!-- analytics&#45;&gt;audit -->
<g id="edge23" class="edge">
<title>analytics&#45;&gt;audit</title>
<path fill="none" stroke="#aaaaaa" d="M745.81,-414.69C761.13,-384.99 795.62,-326.76 843,-298 853.59,-291.57 865.37,-286.61 877.5,-282.8"/>
<polygon fill="#aaaaaa" stroke="#aaaaaa" points="878.8,-286.79 889.2,-279.48 876.51,-278.71 878.8,-286.79"/>
</g>
</g>
</svg>
